<mxfile host="app.diagrams.net" modified="2023-12-04T07:50:54.587Z" agent="Mozilla/5.0 (Windows NT 10.0; Win64; x64) AppleWebKit/537.36 (KHTML, like Gecko) Chrome/119.0.0.0 Safari/537.36" etag="B9ySwHIv9YxfHf1ooxMt" version="22.1.5" type="github">
  <diagram id="C5RBs43oDa-KdzZeNtuy" name="Page-1">
    <mxGraphModel dx="953" dy="630" grid="1" gridSize="10" guides="1" tooltips="1" connect="1" arrows="1" fold="1" page="1" pageScale="1" pageWidth="827" pageHeight="1169" math="0" shadow="0">
      <root>
        <mxCell id="WIyWlLk6GJQsqaUBKTNV-0" />
        <mxCell id="WIyWlLk6GJQsqaUBKTNV-1" parent="WIyWlLk6GJQsqaUBKTNV-0" />
        <mxCell id="or_U-hIjfSGdd5XrEauQ-0" value="알바" style="shape=umlActor;verticalLabelPosition=bottom;verticalAlign=top;html=1;outlineConnect=0;" vertex="1" parent="WIyWlLk6GJQsqaUBKTNV-1">
          <mxGeometry x="30" y="10" width="30" height="60" as="geometry" />
        </mxCell>
        <mxCell id="or_U-hIjfSGdd5XrEauQ-1" value="사장" style="shape=umlActor;verticalLabelPosition=bottom;verticalAlign=top;html=1;outlineConnect=0;" vertex="1" parent="WIyWlLk6GJQsqaUBKTNV-1">
          <mxGeometry x="390" y="10" width="30" height="60" as="geometry" />
        </mxCell>
        <mxCell id="or_U-hIjfSGdd5XrEauQ-2" value="프랜차이즈 매니저" style="shape=umlActor;verticalLabelPosition=bottom;verticalAlign=top;html=1;outlineConnect=0;" vertex="1" parent="WIyWlLk6GJQsqaUBKTNV-1">
          <mxGeometry x="760" y="10" width="30" height="60" as="geometry" />
        </mxCell>
        <mxCell id="or_U-hIjfSGdd5XrEauQ-3" value="calendar" style="shape=umlFrame;whiteSpace=wrap;html=1;pointerEvents=0;width=60;height=20;" vertex="1" parent="WIyWlLk6GJQsqaUBKTNV-1">
          <mxGeometry x="10" y="110" width="800" height="460" as="geometry" />
        </mxCell>
        <mxCell id="or_U-hIjfSGdd5XrEauQ-4" value="" style="endArrow=none;dashed=1;html=1;rounded=0;exitX=0.086;exitY=-0.003;exitDx=0;exitDy=0;exitPerimeter=0;entryX=0.089;entryY=1.001;entryDx=0;entryDy=0;entryPerimeter=0;" edge="1" parent="WIyWlLk6GJQsqaUBKTNV-1" source="or_U-hIjfSGdd5XrEauQ-3" target="or_U-hIjfSGdd5XrEauQ-3">
          <mxGeometry width="50" height="50" relative="1" as="geometry">
            <mxPoint x="360" y="420" as="sourcePoint" />
            <mxPoint x="79" y="560" as="targetPoint" />
          </mxGeometry>
        </mxCell>
        <mxCell id="or_U-hIjfSGdd5XrEauQ-5" value="" style="endArrow=none;dashed=1;html=1;rounded=0;exitX=0.086;exitY=-0.003;exitDx=0;exitDy=0;exitPerimeter=0;entryX=0.089;entryY=1.001;entryDx=0;entryDy=0;entryPerimeter=0;" edge="1" parent="WIyWlLk6GJQsqaUBKTNV-1">
          <mxGeometry width="50" height="50" relative="1" as="geometry">
            <mxPoint x="400" y="109" as="sourcePoint" />
            <mxPoint x="402" y="570" as="targetPoint" />
          </mxGeometry>
        </mxCell>
        <mxCell id="or_U-hIjfSGdd5XrEauQ-6" value="" style="endArrow=none;dashed=1;html=1;rounded=0;exitX=0.086;exitY=-0.003;exitDx=0;exitDy=0;exitPerimeter=0;entryX=0.089;entryY=1.001;entryDx=0;entryDy=0;entryPerimeter=0;" edge="1" parent="WIyWlLk6GJQsqaUBKTNV-1">
          <mxGeometry width="50" height="50" relative="1" as="geometry">
            <mxPoint x="760" y="109" as="sourcePoint" />
            <mxPoint x="762" y="570" as="targetPoint" />
          </mxGeometry>
        </mxCell>
      </root>
    </mxGraphModel>
  </diagram>
</mxfile>
